# xmcd
#
# Track frame offsets:
#	180
#	11230
#	30790
#	43135
#	60179
#	78225
#	99006
#	118973
#	134025
#	149059
#	170321
#	179936
#
# Disc length: 2736 seconds
#
# Revision: 1
# Processed by: cddbd v1.4PL0 Copyright (c) Steve Scherf et al.
# Submitted via: audiograbber 1.81.01
#
DISCID=a40aae0c
DTITLE=Roland - Roland 50 (Limited Edition)
DYEAR=1994
DGENRE=National Folk
TTITLE0=Better Days Ahead
TTITLE1=Flo Me La
TTITLE2=Last Letter Home (New Version)
TTITLE3=Too Late To Say She's Sorry
TTITLE4=Looking For A Friend
TTITLE5=Mean Ol' Frisco
TTITLE6=Brand New Automobile
TTITLE7=Fine Sugar Mama
TTITLE8=Black Mountain
TTITLE9=Pay The Price
TTITLE10=War
TTITLE11=Poetry And All That Jazz
EXTD=
EXTT0=
EXTT1=
EXTT2=
EXTT3=
EXTT4=
EXTT5=
EXTT6=
EXTT7=
EXTT8=
EXTT9=
EXTT10=
EXTT11=
PLAYORDER=
